<svg xmlns:xlink="http://www.w3.org/1999/xlink" xmlns="http://www.w3.org/2000/svg" class=" _logo" viewBox="0 0 194 59" width="194"  height="59" ><defs><symbol viewBox="0 0 194 59" fill="none" id="logo" xmlns="http://www.w3.org/2000/svg">
        <path d="M.697 51.612c0-3.935 2.733-7.018 6.962-7.018 2.89 0 5.04 1.479 6.014 3.451l-1.649.953c-.66-1.52-2.23-2.536-4.308-2.536-3.182 0-5.082 2.299-5.082 5.145 0 2.846 1.958 5.145 5.14 5.145 2.115 0 3.685-1.015 4.345-2.535l1.648.957c-.968 1.968-3.12 3.451-6.05 3.451-4.23 0-7.02-3.077-7.02-7.013z" fill="currentColor"></path>
        <path d="M27.937 44.786v13.642h-1.942V46.654h-8.144v11.774h-1.937V44.786h12.023z" fill="currentColor"></path>
        <path d="M119.019 44.786v13.642h-1.942V46.654h-8.144v11.774h-1.937V44.786h12.023z" fill="currentColor"></path>
        <path d="M41.713 56.555v1.873H31.051V44.786h10.568v1.873h-8.632v3.993h5.434v1.873h-5.434v4.035h8.726v-.005z" fill="currentColor"></path>
        <path d="M75.826 51.61c0-3.877 2.947-7.018 7.176-7.018 4.23 0 7.177 3.135 7.177 7.018 0 3.877-2.947 7.018-7.177 7.018-4.229 0-7.176-3.14-7.176-7.018zm12.41 0c0-2.883-2.035-5.145-5.234-5.145-3.198 0-5.234 2.262-5.234 5.145 0 2.883 2.036 5.145 5.234 5.145 3.199 0 5.235-2.262 5.235-5.145z" fill="currentColor"></path>
        <path d="M104.594 49.169c0 2.472-2 4.387-4.46 4.387h-5.428v4.872H92.77V44.786h7.37c2.461 0 4.455 1.91 4.455 4.383zm-1.937 0c0-1.442-1.162-2.515-2.601-2.515h-5.355v5.03h5.355c1.439 0 2.601-1.069 2.601-2.515z" fill="currentColor"></path>
        <path d="M134.727 49.169c0 2.472-2 4.387-4.46 4.387h-5.428v4.872h-1.937V44.786h7.37c2.455 0 4.455 1.91 4.455 4.383zm-1.942 0c0-1.442-1.162-2.515-2.596-2.515h-5.355v5.03h5.355c1.434 0 2.596-1.069 2.596-2.515z" fill="currentColor"></path>
        <path d="M136.664 51.61c0-3.877 2.947-7.018 7.176-7.018 4.23 0 7.177 3.135 7.177 7.018 0 3.877-2.947 7.018-7.177 7.018-4.229-.005-7.176-3.14-7.176-7.018zm12.411 0c0-2.883-2.036-5.145-5.235-5.145-3.198 0-5.234 2.262-5.234 5.145 0 2.883 2.036 5.145 5.234 5.145 3.199 0 5.235-2.262 5.235-5.145z" fill="currentColor"></path>
        <path d="M164.783 56.555v1.873h-10.668V44.786h10.568v1.873h-8.631v3.993h5.428v1.873h-5.428v4.035h8.731v-.005z" fill="currentColor"></path>
        <path d="M179.909 58.312v.116h-2.172l-4.962-6.587-3.141 3.14v3.452h-1.937V44.786h1.937v7.718l7.721-7.718h2.365v.116l-5.605 5.613 5.794 7.797z" fill="currentColor"></path>
        <path d="M193.289 46.659h-5.234v11.774h-1.942V46.66h-5.234v-1.873h12.41v1.873z" fill="currentColor"></path>
        <path d="M56.648 56.56V44.786h-1.942V56.56h-8.144V44.786h-1.937v13.642h13.63V56.56h-1.607z" fill="currentColor"></path>
        <path d="M73.586 56.56l-5.23-11.774h-1.863L61.264 56.56h-1.418v1.873h15.158V56.56h-1.418zm-10.26 0l4.094-9.433 4.093 9.433h-8.187z" fill="currentColor"></path>
        <path d="M75.16 33.233c-.57 0-1.031.463-1.031 1.037 0 .573.46 1.036 1.031 1.036.57 0 1.031-.463 1.031-1.036 0-.574-.46-1.037-1.03-1.037z" fill="currentColor"></path>
        <path d="M72.773 33.233c-.57 0-1.03.463-1.03 1.037 0 .573.46 1.036 1.03 1.036.57 0 1.032-.463 1.032-1.036a1.04 1.04 0 00-1.032-1.037z" fill="currentColor"></path>
        <path d="M76.578 34.27c0 .574.46 1.037 1.031 1.037.273 0 .513-.105.696-.279a23.226 23.226 0 01-1.125-1.699c-.356.163-.602.52-.602.942z" fill="currentColor"></path>
        <path d="M70.266 30.904c-.571 0-1.032.463-1.032 1.036a1.032 1.032 0 102.062 0c0-.573-.46-1.036-1.03-1.036z" fill="currentColor"></path>
        <path d="M67.642 30.904c-.57 0-1.03.463-1.03 1.036 0 .574.46 1.037 1.03 1.037.571 0 1.032-.463 1.032-1.037a1.04 1.04 0 00-1.032-1.036z" fill="currentColor"></path>
        <path d="M72.715 32.977c.57 0 1.03-.463 1.03-1.037 0-.573-.46-1.036-1.03-1.036a1.036 1.036 0 000 2.073z" fill="currentColor"></path>
        <path d="M75.16 30.904c-.57 0-1.031.463-1.031 1.036 0 .574.46 1.037 1.031 1.037.57 0 1.031-.463 1.031-1.037 0-.573-.46-1.036-1.03-1.036z" fill="currentColor"></path>
        <path d="M67.82 28.573c-.57 0-1.03.463-1.03 1.036 0 .574.46 1.037 1.03 1.037.57 0 1.031-.463 1.031-1.037 0-.573-.466-1.036-1.03-1.036z" fill="currentColor"></path>
        <path d="M70.266 28.573c-.571 0-1.032.463-1.032 1.036a1.032 1.032 0 102.062 0c0-.573-.46-1.036-1.03-1.036z" fill="currentColor"></path>
        <path d="M72.715 28.573c-.57 0-1.031.463-1.031 1.036 0 .574.46 1.037 1.03 1.037.571 0 1.032-.463 1.032-1.037 0-.573-.466-1.036-1.031-1.036z" fill="currentColor"></path>
        <path d="M74.129 29.608c0 .574.46 1.037 1.031 1.037.21 0 .403-.063.565-.174a23.853 23.853 0 01-.701-1.883 1.027 1.027 0 00-.895 1.02z" fill="currentColor"></path>
        <path d="M67.82 26.241c-.57 0-1.03.463-1.03 1.037 0 .573.46 1.036 1.03 1.036a1.036 1.036 0 000-2.073z" fill="currentColor"></path>
        <path d="M65.334 26.241c-.57 0-1.031.463-1.031 1.037 0 .573.46 1.036 1.03 1.036a1.036 1.036 0 000-2.073z" fill="currentColor"></path>
        <path d="M62.8 26.241c-.57 0-1.03.463-1.03 1.037 0 .573.46 1.036 1.03 1.036.571 0 1.032-.463 1.032-1.036 0-.574-.46-1.037-1.031-1.037z" fill="currentColor"></path>
        <path d="M60.361 28.314c.57 0 1.031-.463 1.031-1.036 0-.574-.46-1.037-1.03-1.037-.571 0-1.032.463-1.032 1.037 0 .573.46 1.036 1.031 1.036z" fill="currentColor"></path>
        <path d="M70.266 26.241c-.571 0-1.032.463-1.032 1.037a1.032 1.032 0 102.062 0c0-.574-.46-1.037-1.03-1.037z" fill="currentColor"></path>
        <path d="M72.715 26.241c-.57 0-1.031.463-1.031 1.037 0 .573.46 1.036 1.03 1.036a1.036 1.036 0 000-2.073z" fill="currentColor"></path>
        <path d="M74.129 27.28c0 .489.34.9.795 1.004a24.928 24.928 0 01-.465-1.762c-.2.19-.33.458-.33.758z" fill="currentColor"></path>
        <path d="M65.371 23.912c-.57 0-1.031.463-1.031 1.037 0 .573.46 1.036 1.031 1.036.57 0 1.031-.463 1.031-1.037 0-.573-.46-1.036-1.031-1.036z" fill="currentColor"></path>
        <path d="M67.82 23.912c-.57 0-1.03.463-1.03 1.037 0 .573.46 1.036 1.03 1.036.57 0 1.031-.463 1.031-1.037 0-.573-.466-1.036-1.03-1.036z" fill="currentColor"></path>
        <path d="M62.8 23.912c-.57 0-1.03.463-1.03 1.037 0 .573.46 1.036 1.03 1.036.571 0 1.032-.463 1.032-1.037 0-.573-.46-1.036-1.031-1.036z" fill="currentColor"></path>
        <path d="M70.266 23.912c-.571 0-1.032.463-1.032 1.037a1.032 1.032 0 102.062 0c0-.574-.46-1.037-1.03-1.037z" fill="currentColor"></path>
        <path d="M72.715 23.912c-.57 0-1.031.463-1.031 1.037 0 .573.46 1.036 1.03 1.036.571 0 1.032-.463 1.032-1.037 0-.573-.466-1.036-1.031-1.036z" fill="currentColor"></path>
        <path d="M74.129 24.947c0 .163.042.316.11.453-.032-.19-.068-.374-.094-.563-.006.037-.016.074-.016.11z" fill="currentColor"></path>
        <path d="M65.371 21.581c-.57 0-1.031.463-1.031 1.037 0 .573.46 1.036 1.031 1.036.57 0 1.031-.463 1.031-1.037 0-.568-.46-1.036-1.031-1.036z" fill="currentColor"></path>
        <path d="M62.8 21.581c-.57 0-1.03.463-1.03 1.037 0 .573.46 1.036 1.03 1.036.571 0 1.032-.463 1.032-1.037 0-.568-.46-1.036-1.031-1.036z" fill="currentColor"></path>
        <path d="M67.82 21.581c-.57 0-1.03.463-1.03 1.037 0 .573.46 1.036 1.03 1.036.57 0 1.031-.463 1.031-1.037a1.04 1.04 0 00-1.03-1.036z" fill="currentColor"></path>
        <path d="M70.266 21.581c-.571 0-1.032.463-1.032 1.037a1.032 1.032 0 102.062 0c0-.569-.46-1.037-1.03-1.037z" fill="currentColor"></path>
        <path d="M72.715 21.581c-.57 0-1.031.463-1.031 1.037 0 .573.46 1.036 1.03 1.036.571 0 1.032-.463 1.032-1.037a1.04 1.04 0 00-1.031-1.036z" fill="currentColor"></path>
        <path d="M67.822 19.254c-.382 0-.717.216-.895.526H58.4l-4.486-4.514h-8.296a1.026 1.026 0 00-.979-.726 1.03 1.03 0 00-1.026 1.032c0 .568.46 1.03 1.026 1.03.309 0 .581-.136.77-.352h8.097l4.486 4.509h8.914c.173.331.513.558.91.558.571 0 1.032-.463 1.032-1.037a1.026 1.026 0 00-1.026-1.026z" fill="currentColor"></path>
        <path d="M70.266 19.255c-.571 0-1.032.463-1.032 1.036a1.032 1.032 0 102.062 0c0-.573-.46-1.036-1.03-1.036z" fill="currentColor"></path>
        <path d="M72.715 19.255c-.57 0-1.031.463-1.031 1.036 0 .574.46 1.037 1.03 1.037.571 0 1.032-.463 1.032-1.037 0-.573-.466-1.036-1.031-1.036z" fill="currentColor"></path>
        <path d="M70.266 16.924c-.571 0-1.032.463-1.032 1.036a1.032 1.032 0 102.062 0c0-.573-.46-1.036-1.03-1.036z" fill="currentColor"></path>
        <path d="M72.715 16.924c-.57 0-1.031.463-1.031 1.036 0 .574.46 1.037 1.03 1.037.571 0 1.032-.463 1.032-1.037 0-.573-.466-1.036-1.031-1.036z" fill="currentColor"></path>
        <path d="M74.129 17.954v.016c.016-.11.032-.22.053-.331-.032.105-.053.21-.053.315z" fill="currentColor"></path>
        <path d="M70.265 14.594c-.424 0-.79.258-.947.631h-8.24L56.73 10.48h-4.684l-2.471-2.484a2.107 2.107 0 00-1.502-3.577 2.107 2.107 0 00-2.1 2.11c0 1.162.943 2.11 2.1 2.11.225 0 .434-.043.638-.111l2.926 2.94H56.3l4.35 4.746h8.767a1.033 1.033 0 001.884-.584 1.04 1.04 0 00-1.036-1.036zm-23.303-8.07c0-.616.497-1.116 1.11-1.116.612 0 1.11.5 1.11 1.115 0 .616-.498 1.116-1.11 1.116-.613 0-1.11-.5-1.11-1.116z" fill="currentColor"></path>
        <path d="M72.715 14.594c-.57 0-1.031.463-1.031 1.037 0 .573.46 1.036 1.03 1.036a1.036 1.036 0 000-2.073z" fill="currentColor"></path>
        <path d="M74.129 15.629c0 .284.115.542.298.731.126-.579.272-1.157.445-1.72-.429.12-.743.515-.743.989z" fill="currentColor"></path>
        <path d="M67.82 12.263c-.57 0-1.03.463-1.03 1.037 0 .573.46 1.036 1.03 1.036a1.036 1.036 0 000-2.073z" fill="currentColor"></path>
        <path d="M64.346 13.3c0 .573.46 1.036 1.03 1.036.571 0 1.032-.463 1.032-1.036 0-.574-.46-1.037-1.031-1.037-.57 0-1.031.463-1.031 1.037z" fill="currentColor"></path>
        <path d="M61.88 13.3a1.032 1.032 0 102.062 0c.001-.574-.46-1.037-1.03-1.037-.565 0-1.031.463-1.031 1.037z" fill="currentColor"></path>
        <path d="M59.666 10.611c0 .574.46 1.037 1.031 1.037.57 0 1.031-.463 1.031-1.037 0-.573-.46-1.036-1.03-1.036a1.04 1.04 0 00-1.032 1.036z" fill="currentColor"></path>
        <path d="M70.266 12.263c-.571 0-1.032.463-1.032 1.037a1.032 1.032 0 102.062 0c0-.574-.46-1.037-1.03-1.037z" fill="currentColor"></path>
        <path d="M72.715 12.263c-.57 0-1.031.463-1.031 1.037 0 .573.46 1.036 1.03 1.036a1.036 1.036 0 000-2.073z" fill="currentColor"></path>
        <path d="M75.16 12.263c-.57 0-1.031.463-1.031 1.037 0 .505.361.925.843 1.015.204-.647.44-1.289.696-1.91a.97.97 0 00-.508-.142z" fill="currentColor"></path>
        <path d="M70.266 9.932c-.571 0-1.032.463-1.032 1.037a1.032 1.032 0 102.062 0c0-.574-.46-1.037-1.03-1.037z" fill="currentColor"></path>
        <path d="M72.715 9.932c-.57 0-1.031.463-1.031 1.037 0 .573.46 1.036 1.03 1.036.571 0 1.032-.463 1.032-1.037 0-.573-.466-1.036-1.031-1.036z" fill="currentColor"></path>
        <path d="M75.16 9.932c-.57 0-1.031.463-1.031 1.037 0 .573.46 1.036 1.031 1.036.57 0 1.031-.463 1.031-1.037 0-.573-.46-1.036-1.03-1.036z" fill="currentColor"></path>
        <path d="M72.715 7.601c-.57 0-1.031.463-1.031 1.036 0 .574.46 1.037 1.03 1.037.571 0 1.032-.463 1.032-1.037 0-.573-.466-1.036-1.031-1.036z" fill="currentColor"></path>
        <path d="M75.16 7.601c-.57 0-1.031.463-1.031 1.036 0 .574.46 1.037 1.031 1.037.57 0 1.031-.463 1.031-1.037 0-.573-.46-1.036-1.03-1.036z" fill="currentColor"></path>
        <path d="M77.61 7.601a1.032 1.032 0 00-.503 1.936c.35-.59.722-1.163 1.125-1.72a1.027 1.027 0 00-.623-.216z" fill="currentColor"></path>
        <path d="M77.61 7.344c.57 0 1.03-.463 1.03-1.036 0-.574-.46-1.037-1.03-1.037-.571 0-1.032.463-1.032 1.037 0 .573.46 1.036 1.031 1.036z" fill="currentColor"></path>
        <path d="M80.055 5.271a1.033 1.033 0 00-.958 1.41c.387-.473.79-.93 1.214-1.373a1.042 1.042 0 00-.256-.037z" fill="currentColor"></path>
        <path d="M6.533 17.093l.126.11.084-.142c-.01 0-.016-.005-.021-.005a.545.545 0 00-.189.037z" fill="#A3A8C2"></path>
        <path d="M6.197 17.581c0 .237.157.432.372.5.047.016.1.032.152.032a.504.504 0 00.508-.447c.005-.027.015-.053.015-.085a.545.545 0 00-.073-.258c0-.005-.005-.005-.005-.01l-.382.647-.566-.49c-.005.017-.005.032-.01.048-.006.026-.01.042-.01.063z" fill="#A3A8C2"></path>
        <path d="M5.783 11.597l-.424.073-.398.163a.523.523 0 00.33.127c.23 0 .424-.158.492-.363z" fill="#A3A8C2"></path>
        <path d="M5.543 10.97a.502.502 0 00-.252-.073c-.02 0-.042.01-.062.016l.177.247.299-.053a.662.662 0 00-.162-.136z" fill="#A3A8C2"></path>
        <path d="M4.911 11.316l-.084-.122a.508.508 0 00-.048.175l.132-.053z" fill="#A3A8C2"></path>
        <path d="M44.104 32.033v-4.688l-5.8-5.918c.132-.274.21-.579.21-.905 0-1.163-.942-2.11-2.099-2.11-.324 0-.633.08-.905.216l-1.246-1.784c.262-.263.45-.594.55-.968h4.454c.13.421.518.726.979.726a1.03 1.03 0 001.026-1.03 1.03 1.03 0 00-1.026-1.032c-.31 0-.581.137-.77.353H34.84a2.181 2.181 0 00-.225-.574l4.03-2.72a2.09 2.09 0 001.88 1.194c1.114 0 2.02-.878 2.082-1.983h3.79l2.9 2.915h4.768l4.628 4.65h8.18c.158.369.524.626.943.626.57 0 1.031-.463 1.031-1.036s-.46-1.036-1.031-1.036c-.356 0-.67.184-.859.463h-7.861l-4.628-4.651H49.7l-2.9-2.915h-4.376a2.1 2.1 0 00-1.91-1.247c-.963 0-1.77.663-2.016 1.552l-5.05-3.23a.879.879 0 00.162-.231h5.7c.162.352.518.594.926.594a1.03 1.03 0 001.026-1.031c0-.573-.46-1.031-1.026-1.031-.55 0-.994.431-1.02.978h-5.491a.956.956 0 00-1.884-.19h-5.256a1.438 1.438 0 00-1.418-1.199 1.442 1.442 0 00-1.419 1.679l-2.706.678a.755.755 0 00-.665-.394.774.774 0 00-.644.347l-2.47-.747c.005-.037.01-.074.01-.116 0-.8-.644-1.447-1.44-1.447-.711 0-1.297.521-1.418 1.2H7.982a1.438 1.438 0 00-2.837 0H2.89a1.438 1.438 0 00-1.418-1.2c-.796 0-1.44.648-1.44 1.447 0 .653.435 1.2 1.021 1.379v4.624a.88.88 0 000 1.578v8.207A1.401 1.401 0 000 23.394c0 .663.445 1.216 1.052 1.39v3.892A1.435 1.435 0 000 30.066c0 .689.482 1.262 1.12 1.41.005 1.01-.01 2.435-.026 3.708a1.309 1.309 0 00-.932 1.52 1.31 1.31 0 001.54 1.032c.502-.1.873-.479.999-.942h4.962a.865.865 0 00.864.52.875.875 0 00.733-.52h15.095c.23.574.843.916 1.466.79a1.316 1.316 0 001.026-1.548 1.29 1.29 0 00-.251-.541l2.57-2.941a.692.692 0 00.235.042.773.773 0 00.189-1.52l-.204-2.826a1.45 1.45 0 001.015-.947l7.077 1.068c0 .137.026.263.057.39l-4.784 4.061v2.257a1.317 1.317 0 00.76 2.504 1.316 1.316 0 00.224-2.51V33.28l4.36-3.704c.252.19.56.3.9.3.838 0 1.519-.684 1.519-1.526s-.68-1.526-1.518-1.526a1.52 1.52 0 00-1.44 1.058l-7.092-1.068a1.407 1.407 0 00-.162-.626l4.752-4.072c.367.316.838.515 1.356.515.476 0 .91-.168 1.261-.436l5.444 5.555v3.878l-2.052 2.062a2.07 2.07 0 00-1.204-.39 2.107 2.107 0 00-2.099 2.11c0 1.163.943 2.11 2.1 2.11a2.107 2.107 0 002.098-2.11c0-.352-.094-.678-.246-.973l2.392-2.404zm-7.689-10.396c-.612 0-1.11-.5-1.11-1.115 0-.616.498-1.115 1.11-1.115.613 0 1.11.5 1.11 1.115a1.11 1.11 0 01-1.11 1.115zm-1.444-2.636c-.398.384-.65.921-.65 1.52 0 .406.12.785.32 1.106l-4.716 4.093c-.016-.01-.027-.027-.042-.037l2.565-8.265c.115.02.23.037.355.037.34 0 .655-.09.938-.232l1.23 1.778zM2.706 36.131c-.11-.458-.45-.8-.874-.931.031-1.768.042-2.957.031-3.756.1-.032.194-.074.283-.121l5.507 4.766c-.006.016-.016.026-.021.042H2.706zM15.248 7.543l-.896 3.351a.768.768 0 00-.45.305l-2.59-.936.083-.142-.22.037-3.36-3.23c.078-.143.136-.295.167-.458h6.444c.078.484.392.878.822 1.073zm8.474 3.725c.115.405.398.736.77.915l-1.147 3.462c-.037-.005-.073-.01-.11-.01a.871.871 0 00-.665.31l-7.296-4.12a.483.483 0 00.016-.12l8.432-.437zm1.68-3.62a1.444 1.444 0 001.183-1.178h5.255c.021.079.053.158.095.231L26.24 9.995c-.23-.3-.576-.505-.969-.553l.131-1.794zm8.506 7.697c0 .616-.497 1.115-1.11 1.115-.612 0-1.11-.5-1.11-1.115 0-.616.498-1.115 1.11-1.115.608 0 1.11.5 1.11 1.115zm-9.914.742a.91.91 0 00-.335-.342l1.146-3.457a1.418 1.418 0 001.403-.505l4.685 2.673a2.145 2.145 0 00-.194.82l-6.705.81zm3.617 10.995l-7.956 3.31-.005-.006 3.836-5.598c.079.016.157.032.241.032.272 0 .518-.11.707-.284l3.23 1.868c-.048.142-.08.289-.08.447 0 .073.011.152.027.231zM2.308 12.925l2.654-1.094.398-.163.424-.074 4.643-.8-3.685 6.266-.084.142-.126-.11-4.292-3.715a.837.837 0 00.079-.363.466.466 0 00-.01-.089zm4.256-5.25c.34 0 .649-.127.895-.321l3.046 2.925-4.805.83-.298.054-.178-.248c.02-.005.042-.015.063-.015.094 0 .178.031.25.073l.817-3.32c.069.006.137.022.21.022zm4.585 2.867l2.628.947a.723.723 0 00.026.394l-6.218 4.714 3.564-6.055zm3.376 1.873c.241 0 .45-.11.592-.284l7.28 4.108a.967.967 0 00-.046.274c0 .037.005.074.01.116l-8.726 2.94c-.167-.3-.429-.53-.753-.652.466-1.789 1.277-4.96 1.612-6.502.015-.006.02 0 .031 0zm8.176 11.374c0 .216.068.415.178.579l-3.805 5.55a1.347 1.347 0 00-1.12.042l-1.707-2.94a.899.899 0 00.194-.611.88.88 0 00-.937-.816c-.026 0-.052.011-.078.016l-2.361-4.067c.262-.142.476-.363.607-.63l9.03 2.877zm-10.317-2.073h.021l2.455 4.23a.883.883 0 00-.172.59v.01L2.863 29.892a1.424 1.424 0 00-.22-.621l8.543-8.197c.261.39.701.642 1.198.642zm-9.5 8.35l.047.162 11.856-3.356a.916.916 0 00.146.205L8.82 35.631a.884.884 0 00-.424-.078.87.87 0 00-.398.131L2.554 30.97a1.41 1.41 0 00.33-.905zM15.2 27.271c.131.058.273.09.425.079.015 0 .03-.006.047-.01l1.774 3.056c-.23.331-.298.757-.183 1.152l-8.14 4.24 6.078-8.517zm7.69-4.083l-9.066-2.893v-.027a1.59 1.59 0 00-.058-.389l8.705-2.93c.136.242.382.41.67.436l.356 5.393a1.04 1.04 0 00-.607.41zm9.29-16.204c.121.095.262.158.409.184l.037 6.082a2.08 2.08 0 00-1.565.91l-4.664-2.656a1.4 1.4 0 00.146-.632c0-.2-.042-.394-.115-.568l5.753-3.32zM6.03 7.57l-.817 3.325L2.554 7.17c.168-.194.288-.43.335-.7h2.256c.09.506.43.916.885 1.1zm-3.858-.084l2.649 3.71.084.12-.137.053-2.653 1.094a.881.881 0 00-.33-.258V7.632c.141-.031.267-.084.387-.147zm-.256 6.266l4.297 3.72.565.489.383-.647c0 .005.005.005.005.01l6.794-5.16c.057.062.13.115.21.157-.304 1.4-1.042 4.303-1.613 6.513-.057-.005-.115-.016-.173-.016-.492 0-.926.253-1.188.632l-3.967-1.79a.537.537 0 01-.142.296l3.957 1.783c-.062.163-.099.342-.099.526v.016L2.8 22.926a1.297 1.297 0 00-.146-.31l3.915-4.535a.525.525 0 01-.372-.5c0-.021.01-.042.01-.063l-3.899 4.724a1.409 1.409 0 00-.513-.247v-8.176a.548.548 0 00.12-.068zm.947 9.843l7.873-2.546-8.307 7.965a1.441 1.441 0 00-.639-.352v-3.867c.565-.142.99-.61 1.073-1.2zm14.646 8.423a1.341 1.341 0 002.01.11l4.815 3.736c-.031.084-.047.173-.062.263H9.615l7.894-4.109zM25.303 35c-.351.069-.639.274-.822.553l-4.763-3.694c.083-.142.136-.29.167-.447l8.747.453c.01.142.052.278.13.389l-2.543 2.91a1.31 1.31 0 00-.916-.164zm3.381-3.472l-8.783-.453c0-.02 0-.047-.005-.068l7.966-3.314c.236.326.602.547 1.026.589l.204 2.83a.739.739 0 00-.408.416zm.346-6.13c-.43 0-.806.19-1.074.49l-3.23-1.868c.017-.073.032-.152.032-.236 0-.537-.413-.979-.937-1.026l-.366-5.398a.879.879 0 00.623-.616l6.72-.8c.163.543.535.995 1.027 1.253l-2.55 8.223c-.083-.01-.162-.021-.245-.021zm12.61-14.714c0 .615-.498 1.115-1.11 1.115-.613 0-1.11-.5-1.11-1.115a1.11 1.11 0 112.22 0zm-3.115.594l-4.088 2.773a2.082 2.082 0 00-1.46-.795l-.037-6.081c.01 0 .015-.006.026-.006l5.464 3.494v.02c0 .206.037.406.095.595zM23.837 6.775c.215.526.728.894 1.324.894l-.12 1.763c-.743.031-1.34.62-1.377 1.367l-8.432.558c-.01-.031-.031-.058-.047-.09l4.643-3.214a.774.774 0 00.55.232c.423 0 .769-.347.769-.774 0-.015-.006-.036-.006-.052l2.696-.684zm-4.213.631a.644.644 0 00-.011.105c0 .1.021.2.058.285l-4.675 3.24c-.02-.015-.036-.031-.057-.042l.822-3.33c.026 0 .052.01.078.01a1.44 1.44 0 001.366-1l2.419.732zM40.98 35.41c0 .616-.498 1.116-1.11 1.116-.613 0-1.11-.5-1.11-1.116a1.11 1.11 0 112.22 0z" fill="currentColor"></path>
        <path d="M44.381 35.116a1.03 1.03 0 00-1.026 1.031c0 .569.461 1.032 1.026 1.032.57 0 1.026-.463 1.026-1.032a1.03 1.03 0 00-1.026-1.03z" fill="currentColor"></path>
        <path d="M60.068 25.253a1.03 1.03 0 001.026-1.031c0-.574-.46-1.032-1.026-1.032-.345 0-.654.174-.837.437H48.197l-2.225-2.236-1.591-1.6h-3.203a1.02 1.02 0 00-.9-.541c-.571 0-1.032.463-1.032 1.036 0 .574.46 1.037 1.031 1.037.388 0 .723-.221.9-.542h2.795l.273.274 3.544 3.561h11.327c.157.374.523.637.952.637z" fill="currentColor"></path>
        <path d="M42.948 7.258a1.03 1.03 0 001.026-1.031 1.027 1.027 0 10-2.052 0c0 .568.46 1.031 1.026 1.031z" fill="currentColor"></path>
        <path d="M29.145 35.003a1.316 1.316 0 00-1.026 1.546 1.31 1.31 0 001.54 1.032 1.316 1.316 0 001.025-1.547 1.31 1.31 0 00-1.539-1.031z" fill="currentColor"></path>
        <path d="M140.536 16.103h8.098c.188.216.461.352.769.352a1.03 1.03 0 001.026-1.03 1.025 1.025 0 00-2.004-.305h-8.297l-4.486 4.508h-8.526a1.021 1.021 0 00-.895-.526c-.571 0-1.032.463-1.032 1.036s.461 1.036 1.032 1.036c.397 0 .738-.226.91-.557h8.92l4.485-4.514z" fill="currentColor"></path>
        <path d="M124.723 15.073a1.036 1.036 0 00-.948-.632c-.57 0-1.031.463-1.031 1.037 0 .573.461 1.036 1.031 1.036.356 0 .67-.179.854-.457h8.767l4.35-4.746h4.663l2.743-2.757c.168.042.341.074.518.074a2.107 2.107 0 002.099-2.11c0-1.162-.942-2.11-2.099-2.11a2.107 2.107 0 00-2.098 2.11c0 .61.261 1.158.68 1.542l-2.246 2.257h-4.684l-4.35 4.745h-8.249v.01zm20.942-7.429c-.612 0-1.109-.5-1.109-1.115 0-.616.497-1.115 1.109-1.115.613 0 1.11.5 1.11 1.115a1.113 1.113 0 01-1.11 1.115z" fill="currentColor"></path>
        <path d="M118.883 33.083c-.571 0-1.031.462-1.031 1.036a1.032 1.032 0 102.062 0c0-.574-.461-1.036-1.031-1.036z" fill="currentColor"></path>
        <path d="M121.404 33.083c-.57 0-1.031.462-1.031 1.036a1.032 1.032 0 102.062 0c0-.574-.465-1.036-1.031-1.036z" fill="currentColor"></path>
        <path d="M134.265 11.027a1.032 1.032 0 10-2.062 0c0 .574.461 1.037 1.031 1.037.566 0 1.031-.463 1.031-1.037z" fill="currentColor"></path>
        <path d="M138.902 7.355c.571 0 1.031-.463 1.031-1.037a1.032 1.032 0 10-2.062 0c0 .574.461 1.037 1.031 1.037z" fill="currentColor"></path>
        <path d="M141.777 7.355c.571 0 1.031-.463 1.031-1.037a1.032 1.032 0 10-2.062 0c0 .574.461 1.037 1.031 1.037z" fill="currentColor"></path>
        <path d="M142.808 23.29a1.032 1.032 0 10-2.062 0 1.032 1.032 0 102.062 0z" fill="currentColor"></path>
        <path d="M116.877 33.185a21.83 21.83 0 01-1.115 1.71c.183.157.413.257.675.257a1.033 1.033 0 00.44-1.967z" fill="currentColor"></path>
        <path d="M75.16 35.584c-.57 0-1.031.463-1.031 1.037 0 .573.46 1.036 1.031 1.036.57 0 1.031-.463 1.031-1.036 0-.574-.46-1.037-1.03-1.037z" fill="currentColor"></path>
        <path d="M77.61 35.584c-.571 0-1.032.463-1.032 1.037 0 .573.46 1.036 1.031 1.036.57 0 1.031-.463 1.031-1.036a1.04 1.04 0 00-1.03-1.037z" fill="currentColor"></path>
        <path d="M79.023 36.623a1.033 1.033 0 001.424.957 24.28 24.28 0 01-1.298-1.447c-.073.148-.126.31-.126.49z" fill="currentColor"></path>
        <path d="M118.883 35.438c-.571 0-1.031.463-1.031 1.037a1.032 1.032 0 102.062 0c0-.574-.461-1.037-1.031-1.037z" fill="currentColor"></path>
        <path d="M116.437 35.438c-.57 0-1.031.463-1.031 1.037a1.033 1.033 0 102.063 0c0-.574-.461-1.037-1.032-1.037z" fill="currentColor"></path>
        <path d="M113.989 37.506c.57 0 1.031-.462 1.031-1.036 0-.163-.042-.316-.11-.452-.398.494-.822.968-1.262 1.425.11.042.226.063.341.063z" fill="currentColor"></path>
        <path d="M126.226 28.423c-.57 0-1.031.463-1.031 1.037a1.033 1.033 0 102.063 0c0-.574-.461-1.037-1.032-1.037z" fill="currentColor"></path>
        <path d="M123.775 28.423c-.57 0-1.031.463-1.031 1.037a1.032 1.032 0 102.062 0c0-.574-.46-1.037-1.031-1.037z" fill="currentColor"></path>
        <path d="M121.332 28.423c-.571 0-1.031.463-1.031 1.037a1.032 1.032 0 102.062 0c0-.574-.461-1.037-1.031-1.037z" fill="currentColor"></path>
        <path d="M118.883 30.494a1.034 1.034 0 00.115-2.062 24.767 24.767 0 01-.686 1.883.984.984 0 00.571.179z" fill="currentColor"></path>
        <path d="M126.226 26.094c-.57 0-1.031.463-1.031 1.036a1.033 1.033 0 102.063 0c0-.573-.461-1.036-1.032-1.036z" fill="currentColor"></path>
        <path d="M128.711 28.162c.57 0 1.031-.463 1.031-1.037a1.032 1.032 0 10-2.062 0c0 .574.46 1.037 1.031 1.037z" fill="currentColor"></path>
        <path d="M131.246 26.094c-.571 0-1.031.463-1.031 1.036a1.032 1.032 0 102.062 0 1.04 1.04 0 00-1.031-1.036z" fill="currentColor"></path>
        <path d="M123.775 26.094c-.57 0-1.031.463-1.031 1.036a1.032 1.032 0 102.062 0c0-.573-.46-1.036-1.031-1.036z" fill="currentColor"></path>
        <path d="M121.332 26.094c-.571 0-1.031.463-1.031 1.036a1.032 1.032 0 102.062 0c0-.573-.461-1.036-1.031-1.036z" fill="currentColor"></path>
        <path d="M119.913 27.126c0-.316-.141-.59-.361-.779a23.174 23.174 0 01-.466 1.794c.476-.094.827-.51.827-1.015z" fill="currentColor"></path>
        <path d="M128.67 25.83c.57 0 1.031-.462 1.031-1.036a1.032 1.032 0 10-2.062 0 1.04 1.04 0 001.031 1.037z" fill="currentColor"></path>
        <path d="M126.226 23.763c-.57 0-1.031.463-1.031 1.036a1.033 1.033 0 102.063 0c0-.573-.461-1.036-1.032-1.036z" fill="currentColor"></path>
        <path d="M131.246 23.763c-.571 0-1.031.463-1.031 1.036a1.032 1.032 0 102.062 0 1.04 1.04 0 00-1.031-1.036z" fill="currentColor"></path>
        <path d="M123.775 23.763c-.57 0-1.031.463-1.031 1.036a1.032 1.032 0 102.062 0c0-.573-.46-1.036-1.031-1.036z" fill="currentColor"></path>
        <path d="M121.332 23.763c-.571 0-1.031.463-1.031 1.036a1.032 1.032 0 102.062 0c0-.573-.461-1.036-1.031-1.036z" fill="currentColor"></path>
        <path d="M119.913 24.8a.968.968 0 00-.042-.274c-.037.285-.084.563-.131.842a1.01 1.01 0 00.173-.568z" fill="currentColor"></path>
        <path d="M128.67 23.506c.57 0 1.031-.462 1.031-1.036a1.032 1.032 0 10-2.062 0 1.043 1.043 0 001.031 1.036z" fill="currentColor"></path>
        <path d="M126.226 21.434c-.57 0-1.031.463-1.031 1.036a1.033 1.033 0 102.063 0c0-.573-.461-1.036-1.032-1.036z" fill="currentColor"></path>
        <path d="M123.775 21.434c-.57 0-1.031.463-1.031 1.036a1.032 1.032 0 102.062 0c0-.573-.46-1.036-1.031-1.036z" fill="currentColor"></path>
        <path d="M121.332 21.434c-.571 0-1.031.463-1.031 1.036a1.032 1.032 0 102.062 0c0-.573-.461-1.036-1.031-1.036z" fill="currentColor"></path>
        <path d="M123.775 19.104c-.57 0-1.031.463-1.031 1.036a1.032 1.032 0 102.062 0c0-.573-.46-1.036-1.031-1.036z" fill="currentColor"></path>
        <path d="M121.332 19.104c-.571 0-1.031.463-1.031 1.036a1.032 1.032 0 102.062 0c0-.573-.461-1.036-1.031-1.036z" fill="currentColor"></path>
        <path d="M123.775 16.771c-.57 0-1.031.463-1.031 1.036a1.032 1.032 0 102.062 0c0-.573-.46-1.036-1.031-1.036z" fill="currentColor"></path>
        <path d="M121.332 16.771c-.571 0-1.031.463-1.031 1.036a1.032 1.032 0 102.062 0c0-.573-.461-1.036-1.031-1.036z" fill="currentColor"></path>
        <path d="M119.913 17.806c0-.231-.078-.437-.204-.61.058.305.105.61.152.92.031-.1.052-.2.052-.31z" fill="currentColor"></path>
        <path d="M121.332 14.441c-.571 0-1.031.463-1.031 1.037a1.032 1.032 0 102.062 0c0-.574-.461-1.037-1.031-1.037z" fill="currentColor"></path>
        <path d="M119.912 15.477c0-.515-.371-.936-.863-1.02.183.594.34 1.204.476 1.82a1.01 1.01 0 00.387-.8z" fill="currentColor"></path>
        <path d="M127.258 13.148a1.033 1.033 0 10-2.063 0 1.033 1.033 0 102.063 0z" fill="currentColor"></path>
        <path d="M123.775 14.185c.571 0 1.031-.463 1.031-1.037a1.032 1.032 0 10-2.062 0 1.04 1.04 0 001.031 1.037z" fill="currentColor"></path>
        <path d="M121.332 12.112c-.571 0-1.031.463-1.031 1.036a1.032 1.032 0 102.062 0c0-.568-.461-1.036-1.031-1.036z" fill="currentColor"></path>
        <path d="M119.913 13.148c0-.573-.461-1.036-1.031-1.036-.23 0-.44.079-.612.205.256.605.481 1.226.685 1.857.534-.031.958-.479.958-1.026z" fill="currentColor"></path>
        <path d="M123.775 11.854c.571 0 1.031-.463 1.031-1.036a1.032 1.032 0 10-2.062 0 1.04 1.04 0 001.031 1.036z" fill="currentColor"></path>
        <path d="M121.332 9.784c-.571 0-1.031.463-1.031 1.037a1.032 1.032 0 102.062 0c0-.574-.461-1.037-1.031-1.037z" fill="currentColor"></path>
        <path d="M118.883 11.854c.57 0 1.031-.463 1.031-1.036a1.032 1.032 0 10-2.062 0 1.038 1.038 0 001.031 1.036z" fill="currentColor"></path>
        <path d="M117.213 10.144c.073.131.141.263.209.394a.956.956 0 00-.209-.394z" fill="currentColor"></path>
        <path d="M121.332 7.454c-.571 0-1.031.463-1.031 1.036a1.032 1.032 0 102.062 0c0-.573-.461-1.036-1.031-1.036z" fill="currentColor"></path>
        <path d="M118.883 9.521c.57 0 1.031-.463 1.031-1.036a1.032 1.032 0 10-2.062 0 1.038 1.038 0 001.031 1.036z" fill="currentColor"></path>
        <path d="M117.469 8.49c0-.573-.461-1.036-1.031-1.036-.288 0-.544.12-.733.31.393.547.764 1.11 1.11 1.689.382-.158.654-.526.654-.963z" fill="currentColor"></path>
        <path d="M118.882 7.192c.393 0 .722-.221.9-.542h7.988c.178.32.508.537.895.537.571 0 1.031-.463 1.031-1.037 0-.573-.46-1.036-1.031-1.036-.393 0-.728.22-.9.542h-7.988a1.027 1.027 0 00-.9-.542c-.571 0-1.031.463-1.031 1.036.01.579.471 1.042 1.036 1.042z" fill="currentColor"></path>
        <path d="M116.437 7.191c.571 0 1.032-.462 1.032-1.036a1.033 1.033 0 10-2.063 0c0 .574.461 1.036 1.031 1.036z" fill="currentColor"></path>
        <path d="M115.019 6.16c0-.573-.461-1.036-1.031-1.036a.992.992 0 00-.414.09c.456.468.89.957 1.304 1.462.089-.153.141-.326.141-.516z" fill="currentColor"></path>
        <path d="M187.781 14.503l.136.31.325.08a.509.509 0 00-.461-.39z" fill="#A3A8C2"></path>
        <path d="M188.133 15.373l-.566-.136-.235-.527c-.016.021-.037.048-.047.074a.536.536 0 00-.068.242c0 .026.01.053.015.074a.505.505 0 00.226.357.532.532 0 00.282.095c.005 0 .011-.005.016-.005.01 0 .016-.005.026-.005a.488.488 0 00.351-.169z" fill="#A3A8C2"></path>
        <path d="M193.985 16.202c0-.668-.456-1.23-1.073-1.394V7.485a1.444 1.444 0 001.073-1.394 1.437 1.437 0 00-2.853-.253h-2.235a1.442 1.442 0 00-1.418-1.194c-.712 0-1.299.516-1.414 1.194h-9.814a1.44 1.44 0 00-1.413-1.194c-.754 0-1.361.579-1.429 1.32h-8.972a1.442 1.442 0 00-1.429-1.32c-.754 0-1.361.579-1.429 1.32h-5.711a.956.956 0 00-1.758-.39.967.967 0 00.293 1.338.956.956 0 001.408-.453h5.81c.11.431.413.784.806.958l-.89 6.376c-.026 0-.047-.005-.073-.005-.33 0-.633.115-.874.305l-5.873-3.572c0-.011.005-.022.005-.037 0-1.163-.942-2.11-2.099-2.11-.869 0-1.612.531-1.931 1.289h-3.45l-2.9 2.915h-4.768l-4.627 4.65h-7.862a1.022 1.022 0 00-.859-.463c-.57 0-1.031.463-1.031 1.037 0 .573.461 1.036 1.031 1.036.424 0 .786-.258.943-.626h8.181l4.627-4.65h4.769l2.899-2.915h2.895c.078.963.79 1.741 1.722 1.904l.361 1.02.654 1.853-.654 1.941-.366 1.084a2.105 2.105 0 00-1.67 1.578h-1.722a2.1 2.1 0 00-2.031-1.615c-.89 0-1.644.563-1.952 1.347h-5.544l-1.685 1.694-.513.52h-4.993a1.027 1.027 0 00-.901-.541c-.57 0-1.031.463-1.031 1.036 0 .574.461 1.037 1.031 1.037.388 0 .723-.221.901-.542h5.401l1.764-1.773.44-.442h5.014c.116 1.052.995 1.878 2.073 1.878.984 0 1.811-.69 2.031-1.615h1.722c.225.92 1.047 1.615 2.031 1.615a2.103 2.103 0 00.649-4.104l.707-2.088c.382-.069.686-.347.801-.71h5.339c.057.152.136.294.241.42l-1.78 2.331a2.005 2.005 0 00-.508-.068 2.107 2.107 0 00-2.099 2.11c0 .336.089.652.225.93l-6.255 5.75v4.688l2.319 2.331c-.382.384-.612.91-.612 1.489 0 1.163.942 2.11 2.099 2.11a2.108 2.108 0 002.099-2.11c0-1.163-.943-2.11-2.099-2.11-.215 0-.414.042-.608.1l-2.214-2.225v-3.877l5.899-5.393c.257.195.56.326.89.384l1.879 5.324a1.027 1.027 0 00.665 1.81c.178 0 .34-.047.482-.126l6.961 6.002c-.036.09-.073.18-.089.28-.141.71.32 1.404 1.026 1.546a1.311 1.311 0 00.654-2.536l.676-5.555c.068-.021.141-.043.204-.069l2.193 5.803a1.31 1.31 0 00.503 2.352 1.31 1.31 0 001.104-2.284l2.957-4.393c.403.211.864.195 1.246-.005l3.858 4.956a.85.85 0 00-.215.516c-.036.484.33.91.812.941a.884.884 0 00.863-.52h7.805a1.3 1.3 0 00.999.941 1.31 1.31 0 00.628-2.54v-4.31a.882.882 0 000-1.599v-4.372a1.444 1.444 0 001.074-1.394c0-.668-.456-1.231-1.074-1.394V17.58a1.415 1.415 0 001.058-1.379zm-39.127 19.503c0 .615-.497 1.115-1.109 1.115-.613 0-1.11-.5-1.11-1.115 0-.616.497-1.115 1.11-1.115.607 0 1.109.5 1.109 1.115zm28.868.273l8.453-5.245v4.304c-.429.126-.78.473-.895.941h-7.558zm-12.699-8.065c0-.079-.01-.163-.026-.236l11.149-3.583c.094.252.251.463.461.626l-4.193 3.804c-.047-.042-.094-.085-.147-.116a1.345 1.345 0 00-1.868.415c-.037.053-.058.116-.084.169l-5.292-1.079zm-2.219 6.924a1.271 1.271 0 00-.618.205l-6.962-6.003c.016-.047.032-.1.042-.152l6.988-.38c.199.49.665.837 1.209.885l-.659 5.445zm1.162-18.245c.063.226.204.41.403.526l-.691 1.983a1.027 1.027 0 00-1.204 1.015c0 .48.33.884.769 1l.058 5.419a1.333 1.333 0 00-.22.068l-6.689-10.264a1.43 1.43 0 00.418-.605l7.156.858zm21.256-.968l-2.983-.732-.325-.079-.136-.31-1.204-2.683a.768.768 0 00.246-.563.736.736 0 00-.042-.242l4.921-3.751c.141.105.303.179.476.226v7.318c-.429.116-.78.416-.953.816zm.204 6.839c-.167.21-.277.463-.308.742l-6.25-.032a1.446 1.446 0 00-.623-.82l3.507-6.808c-.005 0-.01.005-.016.005a.532.532 0 01-.282-.095l-3.486 6.766a1.447 1.447 0 00-.477-.09c-.173 0-.335.037-.487.09l-4.004-7.076c.236-.2.408-.468.482-.784l7.747.731c-.006-.026-.016-.047-.016-.073a.48.48 0 01.068-.242l-7.763-.742c0-.053-.01-.105-.015-.158l5.993-2.094a.765.765 0 00.555.242c.026 0 .047-.005.073-.005l1.204 2.688.236.526.565.137a.508.508 0 01-.346.168l3.643 6.924zm-12.551 6.902c-.011-.063-.021-.12-.037-.178l4.407-4.178c.084.016.162.027.251.027.545 0 1.011-.306 1.257-.753l6.872 5.25-12.75-.168zm-8.067-12.12a.887.887 0 00.67-.317l10.396 5.84-11.353-2.73a1.024 1.024 0 00-.529-.821l.691-1.983c.042.005.084.01.125.01zm-.968 9.285l-.057-5.42c.251-.073.46-.23.596-.451l11.688 2.809c-.005.042-.01.079-.01.116 0 .063.01.12.016.178l-11.176 3.594a1.444 1.444 0 00-1.057-.826zm21.508-19.624l-4.716 3.599.775-2.967c.026 0 .047.005.073.005.623 0 1.151-.4 1.35-.958h2.361c.042.11.094.221.157.321zM178.083 12.6c-.021 0-.037.005-.058.005l-2.423-5.293c.204-.131.372-.315.492-.531l9.202 4.388c-.005.031-.011.058-.011.09 0 .089.016.173.047.252l-5.899 2.057a1.427 1.427 0 00-1.35-.968zm8.699-5.25l-.821 3.145a.773.773 0 00-.456.226l-8.678-4.14h9.301c.12.332.351.6.654.768zm-11.944.194c.036 0 .073-.01.115-.01l2.324 4.666.23.526a1.452 1.452 0 00-.68.636l-7.328-2.609 4.307-3.651c.257.268.623.442 1.032.442zm3.245 7.955c.178 0 .34-.037.497-.095l4.004 7.076a1.334 1.334 0 00-.193.194l-10.746-6.034a.823.823 0 00.047-.273.51.51 0 00-.011-.095l5.161-1.494c.252.426.712.72 1.241.72zm-16.619 1.188c.183 0 .361-.036.523-.105l6.826 10.154-.063.047-8.725-5.503a2.16 2.16 0 00.146-.752 2.11 2.11 0 00-.968-1.773l1.675-2.194c.178.074.377.126.586.126zm-4.507 3.836c0-.616.497-1.116 1.11-1.116.612 0 1.11.5 1.11 1.116 0 .615-.498 1.115-1.11 1.115-.613 0-1.11-.5-1.11-1.115zm1.926 1.941c.314-.132.581-.347.796-.605l8.563 5.598c-.057.152-.089.32-.089.494 0 .021.006.042.006.063l-6.915.38a1.03 1.03 0 00-.953-.732l-1.795-5.082c.136-.021.262-.063.387-.116zm19.802 7.818c.037-.058.063-.116.089-.174l12.965.169c.016.042.042.079.063.12l-8.553 5.209a.856.856 0 00-.492-.2.87.87 0 00-.45.095l-3.769-5.024c.047-.064.1-.127.147-.195zm13.227-.958l-7.03-5.366a.885.885 0 00.027-.11l6.37.205c.188.347.507.605.895.71v4.372c-.094.047-.183.11-.262.19zm.052-7.276l-3.475-6.586 2.627.647c0 .031-.01.063-.01.094 0 .669.455 1.231 1.073 1.395v4.377c-.073.02-.147.042-.215.073zM162.809 7.522c.068.01.131.02.204.02.314 0 .607-.104.843-.278l4.596 3.314a.566.566 0 01.193-.273l-4.543-3.272a1.51 1.51 0 00.298-.569h9.009l-4.423 3.746-.278.237.477.568.277-.237a.552.552 0 01-.099.258l7.338 2.63a1.53 1.53 0 00-.058.385c0 .136.027.263.058.384l-5.109 1.525a.868.868 0 00-.774-.478.759.759 0 00-.11.01l-1.445-4.356a.512.512 0 01-.314.116l1.439 4.345a.88.88 0 00-.335.342l-7.16-.862a1.529 1.529 0 00-.199-.595l5.91-3.367a.532.532 0 01-.163-.295l-5.951 3.394a1.39 1.39 0 00-.565-.342l.884-6.35zm-2.465 6.813a1.456 1.456 0 00-.225.405h-5.549a1.031 1.031 0 00-.607-.337l-.68-1.93a2.104 2.104 0 001.397-1.584l5.664 3.446zm-8.836-3.851c0-.616.498-1.116 1.11-1.116.612 0 1.11.5 1.11 1.116a1.11 1.11 0 11-2.22 0zm2.225 10.038c0 .615-.497 1.115-1.11 1.115-.612 0-1.11-.5-1.11-1.115a1.11 1.11 0 112.22 0zm-6.899 1.115c-.612 0-1.11-.5-1.11-1.115 0-.616.498-1.116 1.11-1.116.612 0 1.11.5 1.11 1.116 0 .615-.498 1.115-1.11 1.115zm26.549 13.216a1.278 1.278 0 00-.566.015l-2.219-5.881c.12-.121.22-.263.293-.421l5.318 1.152c.042.326.194.631.455.857l-2.952 4.399a1.174 1.174 0 00-.329-.121z" fill="currentColor"></path>
        <path d="M168.436 10.821c.021.116.073.221.162.295a.507.507 0 00.345.137.51.51 0 00.314-.116.485.485 0 00.105-.105.564.564 0 00.1-.258l-.278.237-.476-.568.277-.237c-.015 0-.026-.01-.042-.01a.49.49 0 00-.298.104.496.496 0 00-.194.274c-.015.047-.031.095-.031.147 0 .037.01.069.016.1z" fill="#A3A8C2"></path>
        <path d="M130.021 31.939h8.228l2.376-2.389c.299.163.634.263.995.263a2.107 2.107 0 002.099-2.11c0-1.162-.942-2.11-2.099-2.11a2.107 2.107 0 00-1.727 3.3l-2.047 2.056h-8.228l-2.738 2.752a2.037 2.037 0 00-.623-.105 2.06 2.06 0 00-.827.173l-1.963-2.42h-3.643a1.027 1.027 0 00-1.963.437c0 .573.461 1.036 1.031 1.036.367 0 .686-.194.869-.478h3.24l1.445 1.783.204.247a2.099 2.099 0 00-.487 1.331c0 1.163.943 2.11 2.099 2.11a2.107 2.107 0 001.492-3.588l2.267-2.288zm10.484-4.236c0-.615.497-1.115 1.11-1.115.612 0 1.109.5 1.109 1.115a1.11 1.11 0 11-2.219 0zm-13.143 8.002c0 .616-.498 1.116-1.11 1.116-.612 0-1.11-.5-1.11-1.116 0-.615.498-1.115 1.11-1.115.612 0 1.11.5 1.11 1.115z" fill="currentColor"></path>
        <path d="M160.81 34.927V32.67l-4.784-4.061a1.52 1.52 0 00.063-.41c0-.842-.681-1.526-1.518-1.526-.838 0-1.518.684-1.518 1.526 0 .841.68 1.525 1.518 1.525.335 0 .644-.116.9-.3l4.36 3.704v1.794a1.317 1.317 0 00.225 2.51 1.31 1.31 0 001.539-1.032 1.326 1.326 0 00-.785-1.473z" fill="currentColor"></path>
        <path d="M164.656 34.855a1.311 1.311 0 00-1.539 1.03c-.141.711.32 1.406 1.026 1.548a1.31 1.31 0 001.539-1.032 1.313 1.313 0 00-1.026-1.546z" fill="currentColor"></path>
        <path d="M128.938 10.274h-1.837a1.025 1.025 0 00-.875-.489c-.57 0-1.031.463-1.031 1.037 0 .573.461 1.036 1.031 1.036.414 0 .765-.242.932-.595h2.188l2.795-2.809c.262.116.545.184.848.184a2.107 2.107 0 002.099-2.11c0-1.162-.942-2.109-2.099-2.109a2.107 2.107 0 00-2.099 2.11c0 .5.178.952.471 1.315l-2.423 2.43zm4.051-4.866c.613 0 1.11.5 1.11 1.115 0 .616-.497 1.116-1.11 1.116-.612 0-1.109-.5-1.109-1.116a1.106 1.106 0 011.109-1.115z" fill="currentColor"></path>
        <path d="M146.582 33.602a2.104 2.104 0 00-2.057 1.69h-6.831a1.027 1.027 0 00-.843-.448c-.57 0-1.031.463-1.031 1.036a1.03 1.03 0 001.984.395h6.768a2.098 2.098 0 002.01 1.542 2.107 2.107 0 000-4.215zm0 3.226c-.612 0-1.11-.5-1.11-1.116 0-.615.498-1.115 1.11-1.115.613 0 1.11.5 1.11 1.115 0 .616-.497 1.115-1.11 1.115z" fill="currentColor"></path>
        <path d="M146.582 25.6a2.107 2.107 0 00-2.098 2.11c0 .637.287 1.2.727 1.584l-3.795 3.767h-7.736l-.927.93a2.085 2.085 0 00-1.209-.389 2.107 2.107 0 00-2.099 2.11c0 1.163.942 2.11 2.099 2.11a2.107 2.107 0 002.099-2.11 2.11 2.11 0 00-.246-.973l.691-.694h7.736l4.314-4.283c.146.032.293.053.444.053a2.107 2.107 0 000-4.214zm-13.923 10.107c0 .615-.497 1.115-1.109 1.115-.613 0-1.11-.5-1.11-1.115 0-.616.497-1.115 1.11-1.115.612 0 1.109.5 1.109 1.115zm13.923-6.881c-.612 0-1.109-.5-1.109-1.116 0-.615.497-1.115 1.109-1.115a1.116 1.116 0 010 2.23z" fill="currentColor"></path>
        <path d="M138.753 27.703c0-1.162-.943-2.11-2.099-2.11a2.107 2.107 0 00-2.099 2.11c0 1.163.942 2.11 2.099 2.11a2.108 2.108 0 002.099-2.11zm-2.099-1.115c.612 0 1.109.5 1.109 1.115 0 .616-.497 1.116-1.109 1.116-.613 0-1.11-.5-1.11-1.116 0-.615.497-1.115 1.11-1.115z" fill="currentColor"></path>
        <path d="M62.665 33.302c-1.084 0-1.963.831-2.078 1.888H50.15a2.098 2.098 0 00-2.078-1.888 2.107 2.107 0 00-2.1 2.11c0 1.162.943 2.11 2.1 2.11.884 0 1.643-.559 1.947-1.343h10.699a2.1 2.1 0 001.947 1.342 2.108 2.108 0 002.099-2.11c0-1.162-.942-2.11-2.1-2.11zm0 3.225c-.612 0-1.11-.5-1.11-1.116 0-.615.498-1.115 1.11-1.115.612 0 1.11.5 1.11 1.115a1.11 1.11 0 01-1.11 1.116zM49.187 35.41c0 .616-.498 1.116-1.11 1.116-.613 0-1.11-.5-1.11-1.116a1.11 1.11 0 112.22 0z" fill="currentColor"></path>
        <path d="M67.595 33.301c-.262 0-.508.053-.743.142l-3.738-3.756h-6.652l-.655-.657-.591-.595a2.108 2.108 0 00-1.916-2.962 2.107 2.107 0 00-2.099 2.11c0 1.163.942 2.11 2.1 2.11.491 0 .941-.18 1.302-.469l1.45 1.457H62.706l2.701 2.715.623.626c-.33.374-.534.858-.534 1.394 0 1.163.942 2.11 2.1 2.11a2.107 2.107 0 002.098-2.11 2.109 2.109 0 00-2.099-2.114zm0 3.225c-.612 0-1.11-.5-1.11-1.115s.498-1.115 1.11-1.115c.612 0 1.11.5 1.11 1.115 0 .616-.498 1.115-1.11 1.115zm-15.404-8.949c0-.615.497-1.115 1.11-1.115.612 0 1.109.5 1.109 1.116 0 .615-.497 1.115-1.11 1.115-.612 0-1.11-.5-1.11-1.116z" fill="currentColor"></path>
        <path d="M50.594 20.578H52.7c.183.3.502.5.874.5.57 0 1.03-.463 1.03-1.036 0-.574-.46-1.037-1.03-1.037a1.03 1.03 0 00-.927.59H50.72a2.095 2.095 0 00-2.078-1.894 2.107 2.107 0 00-2.099 2.11c0 .883.544 1.636 1.309 1.951l.8.158a2.131 2.131 0 001.942-1.342zm-1.947-1.893c.613 0 1.11.5 1.11 1.115s-.497 1.115-1.11 1.115c-.612 0-1.11-.5-1.11-1.115a1.11 1.11 0 011.11-1.116z" fill="currentColor"></path>
        <path d="M53.3 8.633a2.107 2.107 0 002.1-2.11c0-1.162-.943-2.11-2.1-2.11a2.107 2.107 0 00-2.099 2.11c0 1.163.942 2.11 2.1 2.11zm0-3.225c.613 0 1.11.5 1.11 1.115 0 .616-.497 1.116-1.11 1.116-.612 0-1.11-.5-1.11-1.116 0-.615.498-1.115 1.11-1.115z" fill="currentColor"></path>
        <path d="M48.25 25.468a2.107 2.107 0 00-2.1 2.11c0 1.162.943 2.11 2.1 2.11.287 0 .56-.059.805-.164l4.837 4.425h3.59c.173.32.508.541.901.541a1.03 1.03 0 001.026-1.03c0-.574-.46-1.032-1.026-1.032-.387 0-.722.221-.9.542h-3.214l-4.418-4.04a2.08 2.08 0 00.492-1.342 2.102 2.102 0 00-2.094-2.12zm-1.11 2.11c0-.616.497-1.116 1.11-1.116.612 0 1.109.5 1.109 1.115a1.11 1.11 0 11-2.22 0z" fill="currentColor"></path>
        <path d="M58.53 8.633c.985 0 1.812-.689 2.032-1.615h2.161l3.062 2.773 1.037.936a1.225 1.225 0 00-.032.237c0 .573.461 1.036 1.031 1.036.571 0 1.032-.463 1.032-1.036 0-.574-.46-1.037-1.031-1.037-.12 0-.23.027-.34.064L63.1 6.024h-2.538c-.226-.92-1.047-1.615-2.031-1.615a2.107 2.107 0 00-2.1 2.11c0 1.162.943 2.114 2.1 2.114zm0-3.225c.613 0 1.11.5 1.11 1.116 0 .615-.497 1.115-1.11 1.115-.612 0-1.11-.5-1.11-1.115a1.11 1.11 0 011.11-1.116z" fill="currentColor"></path>
        <path d="M68.046 7.192c.387 0 .717-.221.895-.537h5.25a1.027 1.027 0 002-.347c0-.574-.46-1.037-1.031-1.037-.325 0-.613.153-.801.39H68.94a1.025 1.025 0 00-.905-.542c-.57 0-1.031.468-1.026 1.036a1.04 1.04 0 001.036 1.037z" fill="currentColor"></path>
        <path d="M129.701 8.465a1.032 1.032 0 10-2.062 0 1.032 1.032 0 102.062 0z" fill="currentColor"></path>
        <path d="M97.03 0a20.78 20.78 0 00-18.185 10.748 1.069 1.069 0 00.482 1.478 1.075 1.075 0 001.366-.452C83.985 5.82 90.235 2.12 96.998 2.12c6.805.01 13.049 3.73 16.331 9.707.262.473.874.678 1.366.452a1.06 1.06 0 00.565-.636 1.048 1.048 0 00-.078-.842C111.528 4.15 104.572.01 97.029 0z" fill="currentColor"></path>
        <path d="M97.014 22.595a1.082 1.082 0 010-2.162 1.08 1.08 0 011.079 1.084 1.085 1.085 0 01-1.079 1.078z" fill="#8CB63C"></path>
        <path d="M97.014 25.269a1.078 1.078 0 01-1.073-1.084c0-.595.482-1.079 1.073-1.079.597 0 1.079.484 1.079 1.079a1.086 1.086 0 01-1.079 1.084z" fill="#8CB63C"></path>
        <path d="M97.014 19.929a1.077 1.077 0 01-1.073-1.079c0-.6.482-1.083 1.073-1.083a1.08 1.08 0 011.079 1.083 1.085 1.085 0 01-1.079 1.079z" fill="#8CB63C"></path>
        <path d="M97.014 17.255a1.078 1.078 0 01-1.073-1.084c0-.594.482-1.078 1.073-1.078.597 0 1.079.484 1.079 1.078a1.086 1.086 0 01-1.079 1.084z" fill="#8CB63C"></path>
        <path d="M97.014 14.59a1.078 1.078 0 01-1.073-1.084c0-.6.482-1.078 1.073-1.078.597 0 1.079.484 1.079 1.078 0 .595-.487 1.084-1.079 1.084z" fill="#8CB63C"></path>
        <path d="M97.014 11.921a1.082 1.082 0 010-2.162 1.08 1.08 0 011.079 1.084 1.085 1.085 0 01-1.079 1.079z" fill="#8CB63C"></path>
        <path d="M97.014 9.246a1.078 1.078 0 01-1.073-1.084c0-.594.482-1.078 1.073-1.078.597 0 1.079.484 1.079 1.078a1.086 1.086 0 01-1.079 1.084z" fill="#8CB63C"></path>
        <path d="M97.014 6.581a1.078 1.078 0 01-1.073-1.084c0-.594.482-1.078 1.073-1.078.597 0 1.079.484 1.079 1.078a1.086 1.086 0 01-1.079 1.084z" fill="#8CB63C"></path>
        <path d="M97.014 35.93a1.078 1.078 0 01-1.073-1.083c0-.594.482-1.078 1.073-1.078.597 0 1.079.484 1.079 1.078a1.086 1.086 0 01-1.079 1.084z" fill="#8CB63C"></path>
        <path d="M97.014 38.6a1.078 1.078 0 01-1.073-1.084c0-.595.482-1.079 1.073-1.079.597 0 1.079.484 1.079 1.079a1.086 1.086 0 01-1.079 1.083z" fill="#8CB63C"></path>
        <path d="M99.589 6.808a1.083 1.083 0 01-.874-1.252c.105-.589.66-.978 1.245-.878.587.105.974.663.875 1.252-.1.59-.66.984-1.246.878z" fill="#8CB63C"></path>
        <path d="M94.062 38.342a1.083 1.083 0 01-.875-1.252c.1-.59.66-.979 1.246-.879a1.082 1.082 0 01-.372 2.13z" fill="#8CB63C"></path>
        <path d="M102.092 7.479a1.08 1.08 0 01.733-2.03c.56.204.848.825.644 1.383a1.068 1.068 0 01-1.377.647z" fill="#8CB63C"></path>
        <path d="M91.2 37.57a1.08 1.08 0 01-.644-1.383 1.072 1.072 0 011.377-.647 1.08 1.08 0 01-.733 2.03z" fill="#8CB63C"></path>
        <path d="M104.442 8.58a1.086 1.086 0 01-.393-1.478 1.074 1.074 0 011.471-.394c.513.3.691.957.393 1.478a1.07 1.07 0 01-1.471.395z" fill="#8CB63C"></path>
        <path d="M88.508 36.311c-.513-.3-.69-.958-.392-1.478a1.074 1.074 0 011.47-.395 1.08 1.08 0 01-1.078 1.873z" fill="#8CB63C"></path>
        <path d="M106.561 10.074a1.088 1.088 0 01-.131-1.526 1.074 1.074 0 011.518-.131 1.08 1.08 0 11-1.387 1.657z" fill="#8CB63C"></path>
        <path d="M86.087 34.602a1.087 1.087 0 01-.131-1.525 1.074 1.074 0 011.518-.132c.455.384.513 1.068.13 1.526a1.075 1.075 0 01-1.517.132z" fill="#8CB63C"></path>
        <path d="M108.389 11.913a1.081 1.081 0 01.131-1.52 1.074 1.074 0 011.518.131 1.087 1.087 0 01-.131 1.526 1.075 1.075 0 01-1.518-.137z" fill="#8CB63C"></path>
        <path d="M83.985 32.497a1.087 1.087 0 01.13-1.525 1.074 1.074 0 011.519.131 1.087 1.087 0 01-.131 1.526 1.08 1.08 0 01-1.518-.132z" fill="#8CB63C"></path>
        <path d="M109.875 14.048a1.087 1.087 0 01.393-1.478 1.075 1.075 0 011.471.394c.298.516.12 1.179-.393 1.479-.513.3-1.172.12-1.471-.395z" fill="#8CB63C"></path>
        <path d="M82.285 30.055a1.086 1.086 0 01.393-1.478 1.075 1.075 0 011.47.395c.3.515.121 1.178-.392 1.478-.513.3-1.172.121-1.47-.395z" fill="#8CB63C"></path>
        <path d="M110.968 16.405a1.077 1.077 0 01.644-1.384 1.067 1.067 0 011.376.647 1.075 1.075 0 11-2.02.737z" fill="#8CB63C"></path>
        <path d="M81.034 27.357a1.076 1.076 0 112.02-.736 1.076 1.076 0 01-.643 1.383 1.08 1.08 0 01-1.377-.647z" fill="#8CB63C"></path>
        <path d="M111.64 18.918a1.076 1.076 0 112.12-.373 1.08 1.08 0 01-.874 1.252 1.083 1.083 0 01-1.246-.879z" fill="#8CB63C"></path>
        <path d="M80.269 24.48a1.075 1.075 0 112.12-.373 1.08 1.08 0 01-.874 1.252 1.08 1.08 0 01-1.246-.879z" fill="#8CB63C"></path>
        <path d="M111.863 21.507c0-.595.482-1.084 1.073-1.084.592 0 1.073.484 1.073 1.084a1.073 1.073 0 11-2.146 0z" fill="#8CB63C"></path>
        <path d="M80.008 21.507c0-.595.481-1.084 1.078-1.084.592 0 1.073.484 1.073 1.084 0 .6-.481 1.078-1.073 1.078a1.072 1.072 0 01-1.078-1.078z" fill="#8CB63C"></path>
        <path d="M111.639 24.102c.104-.59.659-.979 1.245-.879.587.105.974.663.875 1.252a1.08 1.08 0 01-1.246.879 1.08 1.08 0 01-.874-1.252z" fill="#8CB63C"></path>
        <path d="M80.269 18.538c.105-.59.66-.979 1.246-.879.586.105.973.663.874 1.252-.105.59-.66.979-1.246.879a1.073 1.073 0 01-.874-1.252z" fill="#8CB63C"></path>
        <path d="M110.968 26.615a1.072 1.072 0 011.377-.647c.56.206.848.826.643 1.384a1.071 1.071 0 01-1.376.647 1.079 1.079 0 01-.644-1.384z" fill="#8CB63C"></path>
        <path d="M81.034 15.662a1.072 1.072 0 011.377-.647c.56.205.848.826.644 1.383a1.076 1.076 0 11-2.02-.736z" fill="#8CB63C"></path>
        <path d="M109.875 28.972a1.074 1.074 0 011.471-.395c.513.3.691.958.393 1.478a1.07 1.07 0 01-1.471.395 1.087 1.087 0 01-.393-1.478z" fill="#8CB63C"></path>
        <path d="M82.285 12.964a1.074 1.074 0 011.47-.394c.514.3.692.957.394 1.478a1.074 1.074 0 01-1.471.395 1.091 1.091 0 01-.393-1.479z" fill="#8CB63C"></path>
        <path d="M108.388 31.103a1.069 1.069 0 011.513-.131c.455.384.513 1.068.131 1.525a1.074 1.074 0 01-1.518.132 1.097 1.097 0 01-.126-1.526z" fill="#8CB63C"></path>
        <path d="M83.985 10.524a1.074 1.074 0 011.518-.131c.456.384.513 1.067.131 1.52a1.074 1.074 0 01-1.518.131 1.085 1.085 0 01-.13-1.52z" fill="#8CB63C"></path>
        <path d="M106.562 32.945a1.068 1.068 0 011.513.132 1.087 1.087 0 01-.131 1.526 1.074 1.074 0 01-1.518-.132 1.088 1.088 0 01.136-1.526z" fill="#8CB63C"></path>
        <path d="M86.085 8.417a1.074 1.074 0 011.518.131 1.087 1.087 0 01-.131 1.526 1.074 1.074 0 01-1.518-.131 1.082 1.082 0 01.13-1.526z" fill="#8CB63C"></path>
        <path d="M104.441 34.438a1.075 1.075 0 011.471.395c.298.515.12 1.178-.393 1.478a1.081 1.081 0 01-1.078-1.873z" fill="#8CB63C"></path>
        <path d="M88.508 6.708a1.075 1.075 0 011.471.394c.298.516.12 1.179-.393 1.479-.513.3-1.172.12-1.47-.395a1.086 1.086 0 01.392-1.478z" fill="#8CB63C"></path>
        <path d="M102.092 35.54a1.067 1.067 0 011.376.647 1.076 1.076 0 01-.644 1.384 1.067 1.067 0 01-1.376-.647 1.089 1.089 0 01.644-1.384z" fill="#8CB63C"></path>
        <path d="M91.2 5.448a1.068 1.068 0 011.376.647 1.076 1.076 0 11-2.02.737 1.08 1.08 0 01.644-1.384z" fill="#8CB63C"></path>
        <path d="M99.589 36.21a1.076 1.076 0 011.246.88 1.08 1.08 0 01-.875 1.252 1.075 1.075 0 01-1.245-.88c-.1-.588.293-1.146.874-1.251z" fill="#8CB63C"></path>
        <path d="M94.06 4.678a1.075 1.075 0 011.247.878 1.075 1.075 0 11-2.12.374 1.082 1.082 0 01.874-1.252z" fill="#8CB63C"></path>
        <path d="M99.547 9.517a1.081 1.081 0 01-.827-1.283 1.076 1.076 0 112.104.452 1.076 1.076 0 01-1.277.831z" fill="#8CB63C"></path>
        <path d="M94.031 35.616a1.081 1.081 0 01-.827-1.284 1.076 1.076 0 112.104.453 1.084 1.084 0 01-1.277.831z" fill="#8CB63C"></path>
        <path d="M101.972 10.312c-.545-.242-.786-.884-.545-1.426.241-.547.88-.79 1.419-.547.544.242.785.884.544 1.426-.235.541-.874.789-1.418.547z" fill="#8CB63C"></path>
        <path d="M91.177 34.685a1.082 1.082 0 01-.545-1.426c.241-.542.88-.789 1.419-.547.544.242.785.884.544 1.426-.24.542-.88.789-1.418.547z" fill="#8CB63C"></path>
        <path d="M104.181 11.588a1.082 1.082 0 01-.235-1.51c.35-.484 1.02-.589 1.502-.236.481.352.586 1.025.241 1.51a1.076 1.076 0 01-1.508.236z" fill="#8CB63C"></path>
        <path d="M88.582 33.178a1.082 1.082 0 01-.236-1.51 1.07 1.07 0 011.502-.237c.482.352.586 1.026.241 1.51a1.082 1.082 0 01-1.507.237z" fill="#8CB63C"></path>
        <path d="M106.075 13.305a1.084 1.084 0 01.079-1.526c.439-.4 1.12-.363 1.518.08a1.085 1.085 0 01-.079 1.525c-.44.4-1.12.368-1.518-.08z" fill="#8CB63C"></path>
        <path d="M86.353 31.161a1.085 1.085 0 01.078-1.525c.44-.4 1.12-.363 1.518.079a1.085 1.085 0 01-.079 1.525c-.44.4-1.12.363-1.517-.079z" fill="#8CB63C"></path>
        <path d="M107.576 15.38a1.087 1.087 0 01.393-1.48 1.075 1.075 0 011.471.396c.298.515.12 1.178-.393 1.478a1.07 1.07 0 01-1.471-.395z" fill="#8CB63C"></path>
        <path d="M84.588 28.72a1.086 1.086 0 01.393-1.479 1.075 1.075 0 011.47.395c.299.515.121 1.178-.392 1.478-.518.3-1.172.121-1.47-.394z" fill="#8CB63C"></path>
        <path d="M108.613 17.718a1.083 1.083 0 01.691-1.362 1.075 1.075 0 011.356.694 1.075 1.075 0 11-2.047.668z" fill="#8CB63C"></path>
        <path d="M83.37 25.96a1.083 1.083 0 01.69-1.362 1.075 1.075 0 011.356.694 1.083 1.083 0 01-.691 1.363 1.075 1.075 0 01-1.356-.694z" fill="#8CB63C"></path>
        <path d="M109.143 20.228a1.08 1.08 0 01.958-1.189 1.078 1.078 0 011.183.963 1.081 1.081 0 01-.958 1.19 1.077 1.077 0 01-1.183-.964z" fill="#8CB63C"></path>
        <path d="M82.746 23.018a1.077 1.077 0 112.14-.226 1.08 1.08 0 01-.957 1.189 1.074 1.074 0 01-1.183-.963z" fill="#8CB63C"></path>
        <path d="M109.143 22.792a1.077 1.077 0 011.183-.963c.591.063 1.02.594.958 1.189a1.078 1.078 0 01-1.183.963 1.08 1.08 0 01-.958-1.19z" fill="#8CB63C"></path>
        <path d="M82.746 20.002a1.077 1.077 0 112.141.226 1.077 1.077 0 11-2.14-.226z" fill="#8CB63C"></path>
        <path d="M108.613 25.292a1.075 1.075 0 112.047.669c-.183.568-.79.878-1.356.694a1.083 1.083 0 01-.691-1.363z" fill="#8CB63C"></path>
        <path d="M83.37 17.05c.182-.568.79-.878 1.355-.694.565.184.874.794.69 1.362-.182.569-.79.879-1.355.695a1.083 1.083 0 01-.69-1.363z" fill="#8CB63C"></path>
        <path d="M107.576 27.641a1.074 1.074 0 011.471-.394c.513.3.691.957.393 1.478a1.074 1.074 0 01-1.471.395 1.088 1.088 0 01-.393-1.479z" fill="#8CB63C"></path>
        <path d="M84.588 14.3a1.074 1.074 0 011.471-.394c.513.3.691.957.393 1.478a1.074 1.074 0 01-1.471.395 1.086 1.086 0 01-.393-1.479z" fill="#8CB63C"></path>
        <path d="M106.075 29.715a1.072 1.072 0 011.518-.08c.44.4.476 1.084.079 1.526a1.072 1.072 0 01-1.518.08 1.085 1.085 0 01-.079-1.526z" fill="#8CB63C"></path>
        <path d="M86.353 11.858a1.072 1.072 0 011.517-.079c.44.4.477 1.084.079 1.526a1.072 1.072 0 01-1.518.079 1.084 1.084 0 01-.078-1.526z" fill="#8CB63C"></path>
        <path d="M104.181 31.43a1.074 1.074 0 011.502.236 1.082 1.082 0 01-.241 1.51 1.074 1.074 0 01-1.502-.237 1.091 1.091 0 01.241-1.51z" fill="#8CB63C"></path>
        <path d="M88.581 9.844a1.074 1.074 0 011.502.236c.35.484.241 1.158-.24 1.51a1.074 1.074 0 01-1.503-.236 1.083 1.083 0 01.241-1.51z" fill="#8CB63C"></path>
        <path d="M101.971 32.71a1.07 1.07 0 011.418.547 1.08 1.08 0 01-.544 1.425 1.07 1.07 0 01-1.419-.547 1.087 1.087 0 01.545-1.425z" fill="#8CB63C"></path>
        <path d="M91.177 8.333a1.07 1.07 0 011.418.547c.241.547 0 1.183-.544 1.425a1.07 1.07 0 01-1.419-.547c-.24-.542 0-1.183.545-1.425z" fill="#8CB63C"></path>
        <path d="M99.547 33.501a1.076 1.076 0 011.277.831 1.076 1.076 0 11-2.104.453 1.076 1.076 0 01.827-1.284z" fill="#8CB63C"></path>
        <path d="M94.031 7.402a1.076 1.076 0 011.277.832 1.076 1.076 0 11-2.104.452 1.081 1.081 0 01.827-1.284z" fill="#8CB63C"></path>
        <path d="M97.014 33.26a1.077 1.077 0 01-1.073-1.078c0-.595.482-1.079 1.073-1.079a1.078 1.078 0 010 2.157z" fill="#8CB63C"></path>
        <path d="M99.479 12.247a1.077 1.077 0 01-.76-1.326 1.07 1.07 0 011.32-.762c.576.152.916.747.759 1.325a1.078 1.078 0 01-1.32.763z" fill="#8CB63C"></path>
        <path d="M93.989 32.86a1.077 1.077 0 01-.76-1.326 1.07 1.07 0 011.32-.763c.575.153.916.747.759 1.326a1.083 1.083 0 01-1.32.763z" fill="#8CB63C"></path>
        <path d="M101.782 13.204a1.085 1.085 0 01-.393-1.478 1.074 1.074 0 011.471-.395c.513.3.691.958.392 1.479a1.074 1.074 0 01-1.47.394z" fill="#8CB63C"></path>
        <path d="M91.168 31.686a1.085 1.085 0 01-.392-1.479 1.074 1.074 0 011.47-.394c.514.3.692.957.393 1.478a1.075 1.075 0 01-1.47.395z" fill="#8CB63C"></path>
        <path d="M104.52 15.04c.593 0 1.073-.483 1.073-1.079 0-.595-.48-1.078-1.073-1.078-.592 0-1.073.483-1.073 1.078 0 .596.481 1.079 1.073 1.079z" fill="#8CB63C"></path>
        <path d="M88.744 29.82a1.09 1.09 0 010-1.53c.418-.422 1.099-.422 1.523 0a1.09 1.09 0 010 1.53c-.419.421-1.105.421-1.523 0z" fill="#8CB63C"></path>
        <path d="M105.274 16.715a1.086 1.086 0 01.392-1.479 1.075 1.075 0 011.471.395 1.086 1.086 0 01-.392 1.478c-.513.3-1.173.121-1.471-.394z" fill="#8CB63C"></path>
        <path d="M86.885 27.384a1.086 1.086 0 01.393-1.479 1.075 1.075 0 011.47.395c.299.515.12 1.178-.392 1.478a1.07 1.07 0 01-1.47-.394z" fill="#8CB63C"></path>
        <path d="M106.228 19.031a1.087 1.087 0 01.759-1.326 1.08 1.08 0 011.319.763 1.088 1.088 0 01-.759 1.326 1.08 1.08 0 01-1.319-.763z" fill="#8CB63C"></path>
        <path d="M85.718 24.55a1.087 1.087 0 01.759-1.325 1.08 1.08 0 01.56 2.088 1.078 1.078 0 01-1.32-.762z" fill="#8CB63C"></path>
        <path d="M106.557 21.507c0-.595.481-1.084 1.073-1.084.591 0 1.073.484 1.073 1.084a1.074 1.074 0 11-2.146 0z" fill="#8CB63C"></path>
        <path d="M85.32 21.507c0-.595.482-1.084 1.079-1.084.591 0 1.073.484 1.073 1.084 0 .6-.482 1.078-1.073 1.078a1.072 1.072 0 01-1.079-1.078z" fill="#8CB63C"></path>
        <path d="M106.228 23.99a1.077 1.077 0 112.078.563 1.07 1.07 0 01-1.319.763 1.084 1.084 0 01-.759-1.326z" fill="#8CB63C"></path>
        <path d="M85.718 18.465a1.07 1.07 0 011.319-.762c.576.152.916.747.759 1.325a1.07 1.07 0 01-1.32.763 1.085 1.085 0 01-.758-1.326z" fill="#8CB63C"></path>
        <path d="M105.273 26.305a1.074 1.074 0 011.471-.395c.513.3.691.958.393 1.479a1.074 1.074 0 01-1.471.394 1.091 1.091 0 01-.393-1.478z" fill="#8CB63C"></path>
        <path d="M86.885 15.636a1.074 1.074 0 011.47-.394c.514.3.692.957.394 1.478a1.074 1.074 0 01-1.471.395c-.513-.3-.691-.963-.393-1.479z" fill="#8CB63C"></path>
        <path d="M103.761 28.29c.419-.422 1.1-.422 1.524 0 .418.42.418 1.104 0 1.53a1.08 1.08 0 01-1.524-1.53z" fill="#8CB63C"></path>
        <path d="M89.509 15.04c.592 0 1.073-.483 1.073-1.079 0-.595-.48-1.078-1.073-1.078s-1.073.483-1.073 1.078c0 .596.48 1.079 1.073 1.079z" fill="#8CB63C"></path>
        <path d="M101.782 29.813a1.074 1.074 0 011.47.394 1.086 1.086 0 01-.392 1.479c-.513.3-1.173.12-1.471-.395a1.085 1.085 0 01.393-1.478z" fill="#8CB63C"></path>
        <path d="M91.168 11.331a1.075 1.075 0 011.471.395c.299.515.12 1.178-.392 1.478-.513.3-1.173.121-1.471-.395a1.085 1.085 0 01.392-1.478z" fill="#8CB63C"></path>
        <path d="M99.479 30.77a1.081 1.081 0 01.56 2.09 1.08 1.08 0 01-.56-2.09z" fill="#8CB63C"></path>
        <path d="M93.989 10.158a1.08 1.08 0 01.56 2.088 1.08 1.08 0 01-1.32-.762 1.077 1.077 0 01.76-1.326z" fill="#8CB63C"></path>
        <path d="M97.014 30.592a1.077 1.077 0 01-1.073-1.078c0-.6.482-1.084 1.073-1.084a1.08 1.08 0 011.079 1.084 1.085 1.085 0 01-1.079 1.078z" fill="#8CB63C"></path>
        <path d="M99.37 15.004a1.08 1.08 0 01.732-2.03c.561.205.848.826.644 1.383a1.071 1.071 0 01-1.376.647z" fill="#8CB63C"></path>
        <path d="M93.92 30.044a1.08 1.08 0 01.733-2.031 1.08 1.08 0 01-.733 2.03z" fill="#8CB63C"></path>
        <path d="M101.438 16.21a1.088 1.088 0 01-.131-1.525 1.074 1.074 0 011.518-.132c.456.384.513 1.068.131 1.526a1.079 1.079 0 01-1.518.131z" fill="#8CB63C"></path>
        <path d="M91.204 28.468a1.087 1.087 0 01-.131-1.526 1.074 1.074 0 011.518-.131c.455.384.513 1.068.13 1.526a1.074 1.074 0 01-1.517.131z" fill="#8CB63C"></path>
        <path d="M102.975 18.051a1.087 1.087 0 01.392-1.478 1.075 1.075 0 011.471.394 1.086 1.086 0 01-.392 1.479c-.518.3-1.173.12-1.471-.395z" fill="#8CB63C"></path>
        <path d="M89.19 26.051a1.086 1.086 0 01.392-1.478 1.075 1.075 0 011.471.394c.299.516.12 1.179-.392 1.479-.519.3-1.178.12-1.471-.395z" fill="#8CB63C"></path>
        <path d="M103.792 20.308a1.08 1.08 0 01.874-1.252 1.075 1.075 0 011.246.878 1.08 1.08 0 01-.874 1.252 1.08 1.08 0 01-1.246-.878z" fill="#8CB63C"></path>
        <path d="M88.115 23.085a1.075 1.075 0 112.12-.373 1.08 1.08 0 01-.875 1.252 1.072 1.072 0 01-1.245-.879z" fill="#8CB63C"></path>
        <path d="M103.792 22.71a1.08 1.08 0 011.246-.878c.586.105.974.662.874 1.252-.104.589-.659.978-1.246.878a1.08 1.08 0 01-.874-1.252z" fill="#8CB63C"></path>
        <path d="M88.115 19.933a1.08 1.08 0 011.246-.879c.586.105.973.663.874 1.252-.105.59-.66.979-1.246.879a1.078 1.078 0 01-.874-1.252z" fill="#8CB63C"></path>
        <path d="M102.975 24.967a1.074 1.074 0 011.471-.394c.513.3.691.957.392 1.478a1.074 1.074 0 01-1.471.395c-.512-.3-.69-.963-.392-1.479z" fill="#8CB63C"></path>
        <path d="M89.19 16.967a1.074 1.074 0 011.47-.394c.514.3.692.957.393 1.478a1.074 1.074 0 01-1.47.395c-.514-.3-.692-.958-.393-1.479z" fill="#8CB63C"></path>
        <path d="M101.438 26.811a1.074 1.074 0 011.518.131 1.087 1.087 0 01-.131 1.526 1.074 1.074 0 01-1.518-.131 1.088 1.088 0 01.131-1.526z" fill="#8CB63C"></path>
        <path d="M91.204 14.553a1.074 1.074 0 011.518.132 1.087 1.087 0 01-.131 1.525 1.074 1.074 0 01-1.518-.131 1.087 1.087 0 01.13-1.526z" fill="#8CB63C"></path>
        <path d="M99.37 28.013a1.068 1.068 0 011.376.647 1.076 1.076 0 01-.644 1.384 1.068 1.068 0 01-1.376-.648 1.076 1.076 0 01.644-1.383z" fill="#8CB63C"></path>
        <path d="M93.922 12.974a1.068 1.068 0 011.376.647 1.076 1.076 0 11-2.02.736 1.089 1.089 0 01.644-1.383z" fill="#8CB63C"></path>
        <path d="M97.014 27.92a1.078 1.078 0 01-1.073-1.083c0-.595.482-1.079 1.073-1.079.597 0 1.079.484 1.079 1.079a1.086 1.086 0 01-1.079 1.084z" fill="#8CB63C"></path>
        <path d="M99.123 17.825c-.513-.3-.69-.958-.392-1.479a1.074 1.074 0 011.471-.394c.513.3.691.957.392 1.478a1.073 1.073 0 01-1.47.395z" fill="#8CB63C"></path>
        <path d="M93.826 27.062a1.085 1.085 0 01-.392-1.478 1.074 1.074 0 011.47-.395c.514.3.692.957.393 1.478a1.075 1.075 0 01-1.47.395z" fill="#8CB63C"></path>
        <path d="M100.672 19.382a1.087 1.087 0 01.393-1.479 1.075 1.075 0 011.471.395c.298.516.12 1.178-.393 1.478a1.08 1.08 0 01-1.471-.394z" fill="#8CB63C"></path>
        <path d="M91.493 24.72a1.086 1.086 0 01.392-1.478 1.075 1.075 0 011.47.395c.3.515.121 1.178-.392 1.478-.518.3-1.172.121-1.47-.394z" fill="#8CB63C"></path>
        <path d="M101.244 21.5c0-.594.482-1.084 1.073-1.084a1.081 1.081 0 01.005 2.163 1.079 1.079 0 01-1.078-1.079z" fill="#8CB63C"></path>
        <path d="M90.633 21.524c0-.595.481-1.084 1.073-1.084a1.082 1.082 0 01.005 2.162 1.078 1.078 0 01-1.078-1.078z" fill="#8CB63C"></path>
        <path d="M100.678 23.627a1.074 1.074 0 011.466-.4c.513.294.691.957.398 1.478a1.074 1.074 0 01-1.466.4 1.093 1.093 0 01-.398-1.478z" fill="#8CB63C"></path>
        <path d="M91.483 18.315a1.08 1.08 0 011.47-.4c.513.294.691.957.398 1.478a1.079 1.079 0 11-1.868-1.078z" fill="#8CB63C"></path>
        <path d="M99.14 25.186a1.073 1.073 0 011.47.389 1.084 1.084 0 01-.387 1.478c-.513.3-1.173.126-1.471-.39a1.08 1.08 0 01.387-1.477z" fill="#8CB63C"></path>
        <path d="M93.805 15.965a1.073 1.073 0 011.47.39 1.085 1.085 0 01-.387 1.477c-.513.3-1.172.127-1.47-.389a1.083 1.083 0 01.387-1.478z" fill="#8CB63C"></path>
        <path d="M100.245 23.39a1.074 1.074 0 01-1.471.394c-.513-.3-.691-.957-.393-1.478a1.074 1.074 0 011.471-.395c.513.3.691.963.393 1.479z" fill="#8CB63C"></path>
        <path d="M95.643 20.723a1.074 1.074 0 01-1.47.394 1.085 1.085 0 01-.393-1.478 1.074 1.074 0 011.47-.395c.513.3.691.958.393 1.479z" fill="#8CB63C"></path>
        <path d="M100.245 19.639c.298.515.12 1.178-.393 1.478-.513.3-1.172.121-1.47-.395a1.086 1.086 0 01.392-1.478 1.074 1.074 0 011.471.395z" fill="#8CB63C"></path>
        <path d="M95.643 22.312c.298.516.12 1.179-.393 1.479-.513.3-1.172.12-1.47-.395a1.086 1.086 0 01.392-1.478 1.068 1.068 0 011.471.394z" fill="#8CB63C"></path>
    </symbol></defs>
                           <use xlink:href="#logo"></use>
                      </svg>